<svg xmlns="http://www.w3.org/2000/svg" viewBox="0 0 1600 980" width="1600" height="980">
  <rect x="0" y="0" width="1600" height="980" fill="#f8fafc"/>
  <text x="72" y="76" font-family="Arial, sans-serif" font-size="42" font-weight="700" fill="#0f172a">ScholarInsight Agent Orchestration</text>
  <text x="74" y="110" font-family="Arial, sans-serif" font-size="20" fill="#475569">Runtime flow for source selection, evidence extraction, claim certification, falsification, and report rendering.</text>

  <rect x="54" y="150" width="1492" height="610" rx="22" fill="#ffffff" stroke="#cbd5e1" stroke-width="2"/>

  <rect x="85" y="210" width="180" height="170" rx="16" fill="#eff6ff" stroke="#60a5fa" stroke-width="2"/>
  <circle cx="112" cy="238" r="17" fill="#0f766e"/>
  <text x="107" y="244" font-family="Arial, sans-serif" font-size="15" font-weight="700" fill="#ffffff">0</text>
  <text x="142" y="244" font-family="Arial, sans-serif" font-size="17" font-weight="700" fill="#0f172a">Research request</text>
  <text x="112" y="284" font-family="Arial, sans-serif" font-size="14" fill="#334155">target topic</text>
  <text x="112" y="312" font-family="Arial, sans-serif" font-size="14" fill="#334155">seed papers</text>
  <text x="112" y="340" font-family="Arial, sans-serif" font-size="14" fill="#334155">topic-family dims</text>

  <rect x="325" y="210" width="180" height="170" rx="16" fill="#eff6ff" stroke="#60a5fa" stroke-width="2"/>
  <circle cx="352" cy="238" r="17" fill="#0f766e"/>
  <text x="347" y="244" font-family="Arial, sans-serif" font-size="15" font-weight="700" fill="#ffffff">1</text>
  <text x="382" y="244" font-family="Arial, sans-serif" font-size="17" font-weight="700" fill="#0f172a">Planning</text>
  <text x="352" y="284" font-family="Arial, sans-serif" font-size="14" fill="#334155">source tasks</text>
  <text x="352" y="312" font-family="Arial, sans-serif" font-size="14" fill="#334155">quality rules</text>
  <text x="352" y="340" font-family="Arial, sans-serif" font-size="14" fill="#334155">gap queries</text>

  <rect x="565" y="210" width="210" height="170" rx="16" fill="#ecfdf5" stroke="#4ade80" stroke-width="2"/>
  <circle cx="592" cy="238" r="17" fill="#0f766e"/>
  <text x="587" y="244" font-family="Arial, sans-serif" font-size="15" font-weight="700" fill="#ffffff">2</text>
  <text x="622" y="244" font-family="Arial, sans-serif" font-size="17" font-weight="700" fill="#0f172a">Local retrieval</text>
  <text x="592" y="284" font-family="Arial, sans-serif" font-size="14" fill="#334155">embedding candidates</text>
  <text x="592" y="312" font-family="Arial, sans-serif" font-size="14" fill="#334155">CUDA reranker</text>
  <text x="592" y="340" font-family="Arial, sans-serif" font-size="14" fill="#334155">source-role classifier</text>

  <rect x="835" y="210" width="210" height="170" rx="16" fill="#ecfdf5" stroke="#4ade80" stroke-width="2"/>
  <circle cx="862" cy="238" r="17" fill="#0f766e"/>
  <text x="857" y="244" font-family="Arial, sans-serif" font-size="15" font-weight="700" fill="#ffffff">3</text>
  <text x="892" y="244" font-family="Arial, sans-serif" font-size="17" font-weight="700" fill="#0f172a">Evidence</text>
  <text x="862" y="263" font-family="Arial, sans-serif" font-size="12" fill="#475569">extraction</text>
  <text x="862" y="284" font-family="Arial, sans-serif" font-size="14" fill="#334155">quotes and snippets</text>
  <text x="862" y="312" font-family="Arial, sans-serif" font-size="14" fill="#334155">mechanism fields</text>
  <text x="862" y="340" font-family="Arial, sans-serif" font-size="14" fill="#334155">paper attribution</text>

  <rect x="1105" y="210" width="210" height="170" rx="16" fill="#fffbeb" stroke="#f59e0b" stroke-width="2"/>
  <circle cx="1132" cy="238" r="17" fill="#0f766e"/>
  <text x="1127" y="244" font-family="Arial, sans-serif" font-size="15" font-weight="700" fill="#ffffff">4</text>
  <text x="1162" y="244" font-family="Arial, sans-serif" font-size="17" font-weight="700" fill="#0f172a">Claim gate</text>
  <text x="1132" y="284" font-family="Courier New, monospace" font-size="13" fill="#111827">g(c)=1</text>
  <text x="1132" y="312" font-family="Arial, sans-serif" font-size="14" fill="#334155">&gt;=2 evidence items</text>
  <text x="1132" y="340" font-family="Arial, sans-serif" font-size="14" fill="#334155">&gt;=2 papers, roles pass</text>

  <rect x="1375" y="210" width="135" height="170" rx="16" fill="#fffbeb" stroke="#f59e0b" stroke-width="2"/>
  <circle cx="1402" cy="238" r="17" fill="#0f766e"/>
  <text x="1397" y="244" font-family="Arial, sans-serif" font-size="15" font-weight="700" fill="#ffffff">5</text>
  <text x="1432" y="244" font-family="Arial, sans-serif" font-size="17" font-weight="700" fill="#0f172a">Split</text>
  <text x="1402" y="284" font-family="Arial, sans-serif" font-size="14" fill="#334155">report-ready</text>
  <text x="1402" y="312" font-family="Arial, sans-serif" font-size="14" fill="#334155">or backlog</text>

  <line x1="265" y1="295" x2="315" y2="295" stroke="#111827" stroke-width="3"/>
  <polygon points="315,295 303,288 303,302" fill="#111827"/>
  <line x1="505" y1="295" x2="555" y2="295" stroke="#111827" stroke-width="3"/>
  <polygon points="555,295 543,288 543,302" fill="#111827"/>
  <line x1="775" y1="295" x2="825" y2="295" stroke="#111827" stroke-width="3"/>
  <polygon points="825,295 813,288 813,302" fill="#111827"/>
  <line x1="1045" y1="295" x2="1095" y2="295" stroke="#111827" stroke-width="3"/>
  <polygon points="1095,295 1083,288 1083,302" fill="#111827"/>
  <line x1="1315" y1="295" x2="1365" y2="295" stroke="#111827" stroke-width="3"/>
  <polygon points="1365,295 1353,288 1353,302" fill="#111827"/>

  <rect x="210" y="500" width="280" height="130" rx="16" fill="#fff1f2" stroke="#fb7185" stroke-width="2"/>
  <text x="240" y="536" font-family="Arial, sans-serif" font-size="18" font-weight="700" fill="#0f172a">Rejected source pool R</text>
  <text x="240" y="570" font-family="Arial, sans-serif" font-size="14" fill="#334155">relevance score</text>
  <text x="240" y="596" font-family="Arial, sans-serif" font-size="14" fill="#334155">source role</text>
  <text x="240" y="622" font-family="Arial, sans-serif" font-size="14" fill="#334155">rejection reason</text>

  <rect x="565" y="500" width="280" height="130" rx="16" fill="#fff1f2" stroke="#fb7185" stroke-width="2"/>
  <text x="595" y="536" font-family="Arial, sans-serif" font-size="18" font-weight="700" fill="#0f172a">Hard-negative audit</text>
  <text x="595" y="570" font-family="Arial, sans-serif" font-size="14" fill="#334155">boundary challenge</text>
  <text x="595" y="596" font-family="Arial, sans-serif" font-size="14" fill="#334155">semantic quality</text>
  <text x="595" y="622" font-family="Arial, sans-serif" font-size="14" fill="#334155">claim coverage</text>

  <rect x="920" y="500" width="280" height="130" rx="16" fill="#f5f3ff" stroke="#a78bfa" stroke-width="2"/>
  <text x="950" y="536" font-family="Arial, sans-serif" font-size="18" font-weight="700" fill="#0f172a">Falsification plan</text>
  <text x="950" y="570" font-family="Arial, sans-serif" font-size="14" fill="#334155">failure criterion</text>
  <text x="950" y="596" font-family="Arial, sans-serif" font-size="14" fill="#334155">task perturbation</text>
  <text x="950" y="622" font-family="Arial, sans-serif" font-size="14" fill="#334155">negative-result log</text>

  <rect x="1275" y="500" width="235" height="130" rx="16" fill="#f5f3ff" stroke="#a78bfa" stroke-width="2"/>
  <text x="1305" y="536" font-family="Arial, sans-serif" font-size="18" font-weight="700" fill="#0f172a">Report rendering</text>
  <text x="1305" y="570" font-family="Arial, sans-serif" font-size="14" fill="#334155">report.md</text>
  <text x="1305" y="596" font-family="Arial, sans-serif" font-size="14" fill="#334155">mentor packet</text>
  <text x="1305" y="622" font-family="Arial, sans-serif" font-size="14" fill="#334155">exports/*.json</text>

  <path d="M670 380 C640 455 440 455 350 500" stroke="#dc2626" stroke-width="3" stroke-dasharray="7 7" fill="none"/>
  <polygon points="350,500 342,488 356,491" fill="#dc2626"/>
  <line x1="490" y1="565" x2="555" y2="565" stroke="#dc2626" stroke-width="3" stroke-dasharray="7 7"/>
  <polygon points="555,565 543,558 543,572" fill="#dc2626"/>
  <line x1="845" y1="565" x2="910" y2="565" stroke="#111827" stroke-width="3"/>
  <polygon points="910,565 898,558 898,572" fill="#111827"/>
  <line x1="1200" y1="565" x2="1265" y2="565" stroke="#111827" stroke-width="3"/>
  <polygon points="1265,565 1253,558 1253,572" fill="#111827"/>
  <path d="M1375 340 C1260 430 1020 430 980 500" stroke="#7c3aed" stroke-width="3" stroke-dasharray="8 8" fill="none"/>
  <polygon points="980,500 974,488 988,491" fill="#7c3aed"/>

  <rect x="120" y="810" width="1360" height="94" rx="18" fill="#f8fafc" stroke="#94a3b8" stroke-width="2"/>
  <text x="155" y="846" font-family="Arial, sans-serif" font-size="18" font-weight="700" fill="#0f172a">Freeze and validation</text>
  <text x="155" y="876" font-family="Arial, sans-serif" font-size="14" fill="#334155">Fresh pilot validator checks non-replay provenance, CUDA reranker device, required sections, report-ready counts, and falsification coverage.</text>
  <text x="155" y="894" font-family="Arial, sans-serif" font-size="12" fill="#475569">The current frozen pilot covers five topic families. The 132-topic batch remains paused until human review.</text>
</svg>
